<?xml version="1.0" encoding="UTF-8" standalone="no"?>
<!-- Generator: Adobe Illustrator 16.0.0, SVG Export Plug-In . SVG Version: 6.00 Build 0)  -->

<svg
   xmlns:dc="http://purl.org/dc/elements/1.1/"
   xmlns:cc="http://creativecommons.org/ns#"
   xmlns:rdf="http://www.w3.org/1999/02/22-rdf-syntax-ns#"
   xmlns:svg="http://www.w3.org/2000/svg"
   xmlns="http://www.w3.org/2000/svg"
   xmlns:sodipodi="http://sodipodi.sourceforge.net/DTD/sodipodi-0.dtd"
   xmlns:inkscape="http://www.inkscape.org/namespaces/inkscape"
   version="1.1"
   id="Layer_1"
   sodipodi:docname="piCase4cam_v5.svg"
   inkscape:version="0.92.5 (2060ec1f9f, 2020-04-08)"
   x="0px"
   y="0px"
   width="85.468422mm"
   height="156.82173mm"
   viewBox="0 0 302.84086 555.66753"
   enable-background="new 0 0 612 792"
   xml:space="preserve"><metadata
     id="metadata28"><rdf:RDF><cc:Work
         rdf:about=""><dc:format>image/svg+xml</dc:format><dc:type
           rdf:resource="http://purl.org/dc/dcmitype/StillImage" /><dc:title></dc:title></cc:Work></rdf:RDF></metadata><defs
     id="defs26" /><sodipodi:namedview
     pagecolor="#ffffff"
     bordercolor="#666666"
     borderopacity="1"
     objecttolerance="10"
     gridtolerance="10"
     guidetolerance="10"
     inkscape:pageopacity="0"
     inkscape:pageshadow="2"
     inkscape:window-width="1614"
     inkscape:window-height="953"
     id="namedview24"
     showgrid="false"
     inkscape:zoom="1.20595"
     inkscape:cx="-52.024246"
     inkscape:cy="276.35863"
     inkscape:window-x="66"
     inkscape:window-y="27"
     inkscape:window-maximized="1"
     inkscape:current-layer="Layer_1"
     units="mm"
     inkscape:document-units="mm"
     fit-margin-top="0"
     fit-margin-left="0"
     fit-margin-right="0"
     fit-margin-bottom="0" /><g
     id="g1455"
     style="fill:#cccccc"
     transform="translate(-0.49999994,-321.5131)"><path
       sodipodi:nodetypes="ccccccccccccccccccccccccccccccccccccccccccccccccc"
       id="path1035"
       d="m 81.055505,460.25744 -15.668555,1.35983 -15.067984,4.03066 -13.883919,6.55257 -12.170109,8.8108 -9.98755,10.73704 -7.4216809,12.25556 -4.5726463,13.29556 -1.54537466,13.8229 1.54537466,13.82291 4.5726463,13.29312 7.4216809,12.25554 9.98755,10.73948 12.170109,8.81082 13.883919,6.55258 15.067984,4.02821 14.157366,1.23045 v 11.86611 l 26.383624,-10e-4 v 42.51968 h 91.985 v -42.51863 h 26.38362 v -11.86611 l 14.15981,-1.23045 15.06553,-4.02821 13.88395,-6.55258 12.17009,-8.81082 9.98755,-10.73948 7.42168,-12.25554 4.57265,-13.29312 1.54537,-13.82291 -1.54537,-13.8229 -4.57265,-13.29556 -7.42168,-12.25556 -9.98755,-10.73704 -12.17009,-8.8108 -13.88395,-6.55257 -15.06553,-4.03066 -15.67099,-1.35983 -15.671,1.35983 -5.51011,1.47456 h -99.36765 l -5.51012,-1.47456 z m 33.571155,58.3443 c 18.61806,-44.24922 54.12364,-43.59516 74.75972,-0.41461 -37.24741,0.25069 -40.00829,0.10359 -75.17433,0.49229 z"
       style="fill:#cccccc;stroke:#ff0000;stroke-width:0.47242916;stroke-miterlimit:4;stroke-dasharray:none"
       inkscape:connector-curvature="0" /></g><path
     style="fill:#cccccc;stroke:#ff0000;stroke-width:1.33329988"
     d="m 38.466101,555.00089 v -34.8695 h 47.078917 v 34.8695 H 286.53777 c 6.50412,-0.10588 10.66701,-8.57176 10.66701,-15.27265 V 438.21443 c 0,-3.24875 -2.61537,-5.86411 -5.86412,-5.86411 h -14.02551 c -0.26966,0 -0.52634,0.0456 -0.78613,0.0805 -0.1869,-2.72072 -1.34366,-5.30596 -3.28116,-7.24347 -2.13329,-2.13328 -5.01258,-3.32022 -8.0125,-3.32022 l -254.781454,9e-5 c -5.5447141,-0.0897 -9.81310762,4.51974 -9.78714053,10.62992 v 107.2311 c -0.0231894,5.82257 5.11526363,15.2383 10.63044753,15.27265 z M 23.346853,531.69705 c 0,-0.9783 0.252607,-1.95377 0.759261,-2.82708 1.013308,-1.75996 2.880488,-2.83928 4.907104,-2.83928 2.026616,0 3.893796,1.07932 4.907104,2.83928 1.013308,1.74664 1.013308,3.90641 0,5.66636 -1.013308,1.74664 -2.880488,2.83929 -4.907104,2.83929 -2.026616,0 -3.893796,-1.09265 -4.907104,-2.83929 -0.506654,-0.87997 -0.759248,-1.86096 -0.759261,-2.83928 z m 0,-81.48386 c 0,-0.97829 0.252607,-1.9593 0.759261,-2.83927 1.013308,-1.74665 2.880488,-2.83929 4.907104,-2.83929 2.026616,0 3.893796,1.09264 4.907104,2.83929 1.013308,1.75995 1.013308,3.91975 0,5.66635 -1.013308,1.75995 -2.880488,2.83929 -4.907104,2.83929 -2.026616,0 -3.893796,-1.07934 -4.907104,-2.83929 -0.506654,-0.87331 -0.759248,-1.84877 -0.759261,-2.82708 z m 16.999095,11.33324 v -22.67766 l 185.913082,-10e-4 v 22.67766 z m 191.578702,70.15062 c 0,-0.9783 0.25259,-1.95377 0.75926,-2.82708 1.01329,-1.75996 2.88048,-2.83928 4.90711,-2.83928 2.02659,0 3.89377,1.07932 4.90711,2.83928 1.01329,1.74664 1.01329,3.90641 0,5.66636 -1.01334,1.75996 -2.88052,2.83929 -4.90711,2.83929 -2.02663,0 -3.89382,-1.07933 -4.90711,-2.83929 -0.50667,-0.87997 -0.75926,-1.86096 -0.75926,-2.83928 z m 0,-81.48436 c 0,-0.97829 0.25259,-1.9593 0.75926,-2.83927 1.01329,-1.74665 2.88048,-2.83929 4.90711,-2.83929 2.02659,0 3.89377,1.09264 4.90711,2.83929 1.01329,1.75995 1.01329,3.91975 0,5.66635 -1.01334,1.75995 -2.88052,2.83929 -4.90711,2.83929 -2.02663,0 -3.89382,-1.07934 -4.90711,-2.83929 -0.50667,-0.87331 -0.75926,-1.84877 -0.75926,-2.82708 z m 35.07958,81.66848 c -39.38882,-29.24394 -40.8881,-41.11244 0,-75.58649 l 0.89219,-0.41461 v 75.58649 z m 10.47203,7.54418 V 447.9164 h 13.70083 v 91.50895 z"
     id="path18"
     inkscape:connector-curvature="0"
     sodipodi:nodetypes="ccccccssscsscccccccsccsccccsccscccccccscsccscsscsccscscccccccccc" /><g
     id="Layer_x0020_1"
     transform="translate(-4.9750871,-365.1731)"><sodipodi:namedview
       inkscape:cy="849.31355"
       inkscape:cx="507.09933"
       inkscape:zoom="0.94192914"
       showgrid="false"
       guidetolerance="10"
       gridtolerance="10"
       objecttolerance="10"
       bordercolor="#666666"
       pagecolor="#ffffff"
       borderopacity="1"
       id="namedview4"
       inkscape:window-height="855"
       inkscape:window-width="1391"
       inkscape:pageshadow="2"
       inkscape:pageopacity="0"
       inkscape:current-layer="g12"
       inkscape:window-maximized="1"
       inkscape:window-y="1"
       inkscape:window-x="49" /></g><path
     style="fill:#cccccc;stroke:#ff0000;stroke-width:1.33329988"
     d="M 12.612134,133.79756 H 291.34057 c 3.24875,0 5.86412,-2.61481 5.86412,-5.86355 V 17.02126 c 0,-3.24876 -2.61537,-5.86412 -5.86412,-5.86412 h -14.02552 c -0.26963,0 -0.52636,0.0432 -0.78612,0.0781 -0.18755,-2.7275601 -1.34684,-5.2994001 -3.2836,-7.2361501 -2.13329,-2.13328 -5.01258,-3.33243996 -8.01251,-3.33243996 H 11.999404 c -2.9999301,0 -5.8792301,1.19915996 -8.0124901,3.33243996 -2.11995,2.11994 -3.32764996,4.99924 -3.32022996,8.0124901 l 0.27577,112.02037 c -0.63007,9.96753 11.66968006,9.76561 11.66968006,9.76561 z m 10.735541,-23.28125 c 0,-0.97831 0.25261,-1.95621 0.75926,-2.82952 1.01331,-1.75996 2.88049,-2.83929 4.9071,-2.83929 2.02662,0 3.8938,1.07933 4.90711,2.83929 1.01331,1.74662 1.01331,3.90885 0,5.6688 -1.01331,1.74663 -2.88049,2.82464 -4.90711,2.82464 -2.02661,0 -3.89379,-1.07801 -4.9071,-2.82464 -0.50665,-0.87997 -0.75926,-1.86098 -0.75926,-2.83928 z M 23.346774,29.0132 c 0,-0.97831 0.25261,-1.95378 0.75926,-2.82707 1.01331,-1.75996 2.88049,-2.84173 4.9071,-2.84173 2.02662,0 3.8938,1.08177 4.90711,2.84173 1.01331,1.74661 1.01331,3.90639 0,5.66635 -1.01331,1.75995 -2.88049,2.83927 -4.90711,2.83927 -2.02661,0 -3.89379,-1.07932 -4.9071,-2.83927 -0.50665,-0.87998 -0.75926,-1.86098 -0.75926,-2.83928 z M 40.345868,39.30346 V 17.67803 H 226.25584 v 21.62543 z m 191.579802,71.21285 c 0,-0.97831 0.25261,-1.95621 0.75926,-2.82952 1.01331,-1.75996 2.88049,-2.83929 4.90712,-2.83929 2.0266,0 3.89134,1.07933 4.90465,2.83929 1.01331,1.74662 1.01331,3.90885 0,5.6688 -1.01331,1.74663 -2.87805,2.82464 -4.90465,2.82464 -2.02663,0 -3.89381,-1.07801 -4.90712,-2.82464 -0.50665,-0.87997 -0.75926,-1.86098 -0.75926,-2.83928 z m 5.6e-4,-81.50338 c 0,-0.97831 0.25261,-1.95378 0.75926,-2.82707 1.01331,-1.75996 2.88049,-2.84173 4.90712,-2.84173 2.0266,0 3.89134,1.08177 4.90465,2.84173 1.01331,1.74661 1.01331,3.90639 0,5.66635 -1.01331,1.75995 -2.87805,2.83927 -4.90465,2.83927 -2.02663,0 -3.89381,-1.07932 -4.90712,-2.83927 -0.50665,-0.87998 -0.75926,-1.86098 -0.75926,-2.83928 z m 45.54994,89.21923 V 26.72321 H 291.177 v 91.50895 z"
     id="path14"
     inkscape:connector-curvature="0"
     sodipodi:nodetypes="ccsssscssscsccscsccscsscsccscscccccscsccscsscsccscsccccc" /><path
     style="fill:#cccccc;stroke:#ff0000;stroke-width:1.33329988"
     clip-path="none"
     d="m 287.49725,284.99514 h -28.4401 c 0,0 -0.0401,24.48014 -0.002,34.7525 h 29.51103 l 0.001,57.15118 H 259.0562 v 24.21571 H 257.52548 71.61196 V 381.19071 H 40.47279 v 2.91741 H 26.42041 v -75.5865 h 14.05238 l -2e-4,7.5339 h 31.13917 l 2e-4,-31.06038 -50.26955,0.0798 c -0.25979,-0.0349 -0.51646,-0.0798 -0.78612,-0.0798 l -14.0255201,-7.6e-4 c -3.24875,-1.7e-4 -5.86411995,2.61537 -5.86411995,5.86411 v 110.91277 c 0,3.24873 2.61536995,5.8641 5.86411995,5.8641 H 20.55629 c 0.26966,0 0.52633,-0.0456 0.78612,-0.0805 0.18707,2.72838 1.34384,5.30127 3.28116,7.2386 2.13328,2.13329 5.01502,3.33243 8.01495,3.33243 h 253.23342 c 2.99993,0 5.8792,-1.19914 8.01249,-3.33243 2.11995,-2.11995 3.31927,-4.99923 3.31927,-8.0125 l 8e-5,-112.05503 c 0.15053,-6.30282 -4.60056,-10.00564 -9.70723,-9.73079 z m -12.97039,23.2816 c 0,0.9783 -0.25262,1.95376 -0.75926,2.82707 -1.01332,1.75996 -2.8805,2.84173 -4.9071,2.84173 -2.02666,0 -3.8938,-1.08177 -4.90711,-2.84173 -1.01329,-1.74662 -1.01329,-3.9064 0,-5.66636 1.01331,-1.74662 2.88045,-2.82708 4.90711,-2.82708 2.0266,0 3.89378,1.08046 4.9071,2.82708 0.50664,0.87998 0.75926,1.86097 0.75926,2.83929 z m -0.003,81.50339 c 0,0.97831 -0.25262,1.95376 -0.75926,2.82708 -1.01332,1.75996 -2.8805,2.83928 -4.9071,2.83928 -2.02666,0 -3.8938,-1.07932 -4.90711,-2.83928 -1.01329,-1.74663 -1.01329,-3.90641 0,-5.66636 1.01331,-1.75996 2.88045,-2.8393 4.90711,-2.8393 2.0266,0 3.89378,1.07934 4.9071,2.8393 0.50664,0.87998 0.75926,1.86097 0.75926,2.83928 z M 65.94655,308.27674 c 0,0.9783 -0.25261,1.95376 -0.75926,2.82707 -1.01331,1.75996 -2.88049,2.84173 -4.90712,2.84173 -2.02659,0 -3.89377,-1.08177 -4.90711,-2.84173 -1.01328,-1.74662 -1.01328,-3.9064 0,-5.66636 1.01334,-1.74662 2.88052,-2.82708 4.90711,-2.82708 2.02663,0 3.89381,1.08046 4.90712,2.82708 0.50665,0.87998 0.75926,1.86097 0.75926,2.83929 z m 4.9e-4,81.50364 c 0,0.97831 -0.25261,1.95376 -0.75926,2.82708 -1.01331,1.75996 -2.88049,2.83928 -4.90712,2.83928 -2.02659,0 -3.89377,-1.07932 -4.90711,-2.83928 -1.01328,-1.74663 -1.01328,-3.90641 0,-5.66636 1.01334,-1.75996 2.88052,-2.83929 4.90711,-2.83929 2.02663,0 3.89381,1.07933 4.90712,2.83929 0.50665,0.87998 0.75926,1.86097 0.75926,2.83928 z M 20.39587,300.5604 v 91.50894 H 6.6950399 V 300.5604 Z"
     id="path14-9"
     inkscape:connector-curvature="0"
     sodipodi:nodetypes="cccccccccccccccccccsssssscsssssccscsccscsscsccscsscsccscsscsccscsccccc" /><circle
     style="opacity:0.97000002;fill:#cccccc;fill-opacity:1;stroke:#ff0000;stroke-width:1.875;stroke-linecap:round;stroke-linejoin:miter;stroke-miterlimit:4;stroke-dasharray:none;stroke-opacity:1;paint-order:fill markers stroke"
     id="path1457"
     cx="248.82001"
     cy="173.9922"
     r="8.4153538" /><circle
     style="opacity:0.97000002;fill:#cccccc;fill-opacity:1;stroke:#ff0000;stroke-width:1.875;stroke-linecap:round;stroke-linejoin:miter;stroke-miterlimit:4;stroke-dasharray:none;stroke-opacity:1;paint-order:fill markers stroke"
     id="path1457-6"
     cx="281.74368"
     cy="209.41084"
     r="8.4153538" /><circle
     style="opacity:0.97000002;fill:#cccccc;fill-opacity:1;stroke:#ff0000;stroke-width:1.875;stroke-linecap:round;stroke-linejoin:miter;stroke-miterlimit:4;stroke-dasharray:none;stroke-opacity:1;paint-order:fill markers stroke"
     id="path1457-2"
     cx="249.09486"
     cy="245.12386"
     r="8.4153538" /><circle
     style="opacity:0.97000002;fill:#cccccc;fill-opacity:1;stroke:#ff0000;stroke-width:1.875;stroke-linecap:round;stroke-linejoin:miter;stroke-miterlimit:4;stroke-dasharray:none;stroke-opacity:1;paint-order:fill markers stroke"
     id="path1457-2-1"
     cx="54.924747"
     cy="245.12386"
     r="8.4153538" /><circle
     style="opacity:0.97000002;fill:#cccccc;fill-opacity:1;stroke:#ff0000;stroke-width:1.875;stroke-linecap:round;stroke-linejoin:miter;stroke-miterlimit:4;stroke-dasharray:none;stroke-opacity:1;paint-order:fill markers stroke"
     id="path1457-2-7"
     cx="22.368454"
     cy="209.41084"
     r="8.4153538" /><circle
     style="opacity:0.97000002;fill:#cccccc;fill-opacity:1;stroke:#ff0000;stroke-width:1.875;stroke-linecap:round;stroke-linejoin:miter;stroke-miterlimit:4;stroke-dasharray:none;stroke-opacity:1;paint-order:fill markers stroke"
     id="path1457-2-8"
     cx="54.924747"
     cy="173.9922"
     r="8.4153538" /><g
     aria-label="onlfait.ch"
     style="font-style:normal;font-variant:normal;font-weight:normal;font-stretch:normal;font-size:37.5px;line-height:1.25;font-family:Comfortaa;-inkscape-font-specification:Comfortaa;letter-spacing:0px;word-spacing:0px;fill:#000000;fill-opacity:1;stroke:none;stroke-width:0.93749994"
     id="text843"
     transform="translate(0,-166.30448)"><path
       d="m 49.757239,666.94781 q -2.9625,0 -5.3625,-1.35 -2.3625,-1.35 -3.7125,-3.7125 -1.35,-2.4 -1.35,-5.3625 0,-2.9625 1.35,-5.3625 1.35,-2.4 3.7125,-3.75 2.4,-1.35 5.3625,-1.35 2.9625,0 5.325,1.35 2.3625,1.35 3.7125,3.75 1.3875,2.4 1.3875,5.3625 0,2.9625 -1.35,5.3625 -1.35,2.3625 -3.75,3.7125 -2.3625,1.35 -5.325,1.35 z m 0,-2.625 q 2.175,0 3.9,-1.0125 1.725,-1.0125 2.7,-2.775 0.975,-1.8 0.975,-4.0125 0,-2.25 -0.975,-4.0125 -0.975,-1.8 -2.7,-2.8125 -1.725,-1.0125 -3.9,-1.0125 -2.1375,0 -3.9,1.0125 -1.725,1.0125 -2.7375,2.8125 -0.975,1.7625 -0.975,4.0125 0,2.2125 0.975,4.0125 1.0125,1.7625 2.7375,2.775 1.7625,1.0125 3.9,1.0125 z"
       style="stroke:#0000ff;stroke-width:0.93749994"
       id="path1591"
       inkscape:connector-curvature="0" /><path
       d="m 75.519669,646.02281 q 2.6625,0 4.7625,1.125 2.1375,1.125 3.3375,3.3 1.2,2.1375 1.2,5.1375 v 9.75 q 0,0.6 -0.4125,1.0125 -0.4125,0.4125 -1.0125,0.4125 -0.6375,0 -1.05,-0.4125 -0.4125,-0.4125 -0.4125,-1.0125 v -9.75 q 0,-3.3375 -1.875,-5.0625 -1.8375,-1.7625 -4.8375,-1.7625 -1.8375,0 -3.3375,0.7125 -1.4625,0.7125 -2.325,1.9875 -0.8625,1.2375 -0.8625,2.775 v 11.1 q 0,0.6375 -0.4125,1.05 -0.375,0.375 -1.0125,0.375 -0.6375,0 -1.05,-0.375 -0.4125,-0.4125 -0.4125,-1.05 v -17.625 q 0,-0.6375 0.4125,-1.05 0.4125,-0.4125 1.05,-0.4125 0.6375,0 1.0125,0.4125 0.4125,0.4125 0.4125,1.05 v 1.275 q 1.2375,-1.3875 3,-2.175 1.7625,-0.7875 3.825,-0.7875 z"
       style="stroke:#0000ff;stroke-width:0.93749994"
       id="path1593"
       inkscape:connector-curvature="0" /><path
       d="m 95.619599,666.76031 q -2.2875,0 -3.75,-1.8 -1.425,-1.8375 -1.425,-4.6875 v -21.375 q 0,-0.6375 0.4125,-1.0125 0.4125,-0.4125 1.0125,-0.4125 0.6375,0 1.0125,0.4125 0.4125,0.375 0.4125,1.0125 v 21.375 q 0,1.6125 0.6375,2.625 0.675,1.0125 1.6875,1.0125 h 0.9375 q 0.5625,0 0.9,0.4125 0.3375,0.375 0.3375,1.0125 0,0.6375 -0.4875,1.05 -0.45,0.375 -1.2,0.375 z"
       style="stroke:#0000ff;stroke-width:0.93749994"
       id="path1595"
       inkscape:connector-curvature="0" /><path
       d="m 110.80708,640.09781 q -2.475,0 -3.75,1.65 -1.2375,1.65 -1.2375,4.3875 v 0.8625 h 4.5 q 0.6,0 0.9375,0.375 0.375,0.3375 0.375,0.9 0,0.525 -0.375,0.9 -0.3375,0.3375 -0.9375,0.3375 h -4.5 v 15.7875 q 0,0.675 -0.4125,1.0875 -0.375,0.375 -1.0875,0.375 -0.6,0 -1.0125,-0.375 -0.375,-0.4125 -0.375,-1.0875 v -15.7875 h -2.4 q -0.599995,0 -0.974995,-0.3375 -0.3375,-0.375 -0.3375,-0.9 0,-0.5625 0.3375,-0.9 0.375,-0.375 0.974995,-0.375 h 2.4 v -0.7125 q 0,-4.0125 2.0625,-6.4125 2.0625,-2.4 5.8125,-2.4 0.6375,0 1.05,0.375 0.4125,0.375 0.4125,0.9375 0,0.5625 -0.4125,0.9375 -0.4125,0.375 -1.05,0.375 z"
       style="stroke:#0000ff;stroke-width:0.93749994"
       id="path1597"
       inkscape:connector-curvature="0" /><path
       d="m 124.532,646.06031 q 2.925,0 5.2875,1.3875 2.4,1.35 3.75,3.75 1.3875,2.4 1.3875,5.325 v 8.8125 q 0,0.6 -0.4125,1.0125 -0.4125,0.4125 -1.05,0.4125 -0.6375,0 -1.05,-0.375 -0.4125,-0.4125 -0.4125,-1.05 v -2.25 q -1.3125,1.8 -3.3375,2.85 -2.025,1.0125 -4.4625,1.0125 -2.85,0 -5.175,-1.35 -2.2875,-1.3875 -3.6375,-3.75 -1.3125,-2.4 -1.3125,-5.325 0,-2.925 1.35,-5.325 1.3875,-2.4 3.75,-3.75 2.4,-1.3875 5.325,-1.3875 z m 0,18.2625 q 2.1375,0 3.8625,-1.0125 1.725,-1.0125 2.7,-2.775 1.0125,-1.8 1.0125,-4.0125 0,-2.2125 -1.0125,-3.975 -0.975,-1.8 -2.7,-2.8125 -1.725,-1.05 -3.8625,-1.05 -2.1375,0 -3.9,1.05 -1.725,1.0125 -2.7375,2.8125 -0.975,1.7625 -0.975,3.975 0,2.2125 0.975,4.0125 1.0125,1.7625 2.7375,2.775 1.7625,1.0125 3.9,1.0125 z"
       style="stroke:#0000ff;stroke-width:0.93749994"
       id="path1599"
       inkscape:connector-curvature="0" /><path
       d="m 142.64443,666.76031 q -0.6375,0 -1.05,-0.4125 -0.4125,-0.4125 -0.4125,-1.05 v -17.5875 q 0,-0.6375 0.4125,-1.05 0.4125,-0.4125 1.05,-0.4125 0.6375,0 1.0125,0.4125 0.4125,0.4125 0.4125,1.05 v 17.5875 q 0,0.6375 -0.4125,1.05 -0.375,0.4125 -1.0125,0.4125 z m -0.0375,-24.4125 q -0.8625,0 -1.4625,-0.6 -0.5625,-0.6 -0.5625,-1.4625 0,-0.9 0.6,-1.4625 0.6,-0.5625 1.4625,-0.5625 0.825,0 1.425,0.5625 0.6,0.5625 0.6,1.4625 0,0.8625 -0.6,1.4625 -0.6,0.6 -1.4625,0.6 z"
       style="stroke:#0000ff;stroke-width:0.93749994"
       id="path1601"
       inkscape:connector-curvature="0" /><path
       d="m 160.45692,663.87281 q 0.6,0 0.975,0.4125 0.375,0.4125 0.375,1.05 0,0.6 -0.45,1.0125 -0.45,0.4125 -1.125,0.4125 h -0.7875 q -1.9875,0 -3.5625,-0.9375 -1.575,-0.975 -2.475,-2.5875 -0.8625,-1.65 -0.8625,-3.7125 v -10.0125 h -2.4375 q -0.6,0 -0.975,-0.3375 -0.3375,-0.375 -0.3375,-0.9 0,-0.5625 0.3375,-0.9 0.375,-0.375 0.975,-0.375 h 2.4375 v -5.8125 q 0,-0.6375 0.375,-1.05 0.4125,-0.4125 1.05,-0.4125 0.6375,0 1.05,0.4125 0.4125,0.4125 0.4125,1.05 v 5.8125 h 4.2375 q 0.6,0 0.9375,0.375 0.375,0.3375 0.375,0.9 0,0.525 -0.375,0.9 -0.3375,0.3375 -0.9375,0.3375 h -4.2375 v 10.0125 q 0,1.9125 1.125,3.15 1.125,1.2 2.8875,1.2 z"
       style="stroke:#0000ff;stroke-width:0.93749994"
       id="path1603"
       inkscape:connector-curvature="0" /><path
       d="m 167.16936,667.36031 q -0.9,0 -1.5375,-0.6375 -0.6375,-0.6375 -0.6375,-1.5375 0,-0.9375 0.6375,-1.575 0.675,-0.6375 1.5375,-0.6375 0.9,0 1.5375,0.675 0.6375,0.6375 0.6375,1.5375 0,0.9 -0.6375,1.5375 -0.6375,0.6375 -1.5375,0.6375 z"
       style="stroke:#0000ff;stroke-width:0.93749994"
       id="path1605"
       inkscape:connector-curvature="0" /><path
       d="m 183.74435,666.94781 q -2.925,0 -5.25,-1.35 -2.325,-1.3875 -3.675,-3.75 -1.3125,-2.4 -1.3125,-5.325 0,-3 1.275,-5.3625 1.275,-2.4 3.525,-3.75 2.25,-1.35 5.0625,-1.35 4.6875,0 7.6125,3.6 0.3,0.3375 0.3,0.7875 0,0.6 -0.6375,1.05 -0.3375,0.225 -0.7125,0.225 -0.5625,0 -1.0875,-0.5625 -1.125,-1.2375 -2.475,-1.8375 -1.35,-0.6375 -3,-0.6375 -2.0625,0 -3.675,1.0125 -1.6125,0.975 -2.5125,2.775 -0.8625,1.8 -0.8625,4.05 0,2.2125 0.9375,4.0125 0.9375,1.7625 2.625,2.775 1.6875,1.0125 3.8625,1.0125 3,0 4.8375,-1.6125 0.4875,-0.4125 1.0125,-0.4125 0.45,0 0.825,0.3 0.525,0.45 0.525,1.0125 0,0.4875 -0.375,0.825 -2.7,2.5125 -6.825,2.5125 z"
       style="stroke:#0000ff;stroke-width:0.93749994"
       id="path1607"
       inkscape:connector-curvature="0" /><path
       d="m 206.65681,646.02281 q 2.6625,0 4.7625,1.125 2.1375,1.125 3.3375,3.3 1.2,2.1375 1.2,5.1375 v 9.75 q 0,0.6 -0.4125,1.0125 -0.4125,0.4125 -1.0125,0.4125 -0.6375,0 -1.05,-0.4125 -0.4125,-0.4125 -0.4125,-1.0125 v -9.75 q 0,-3.3375 -1.875,-5.0625 -1.8375,-1.7625 -4.8375,-1.7625 -1.8375,0 -3.3375,0.7125 -1.4625,0.7125 -2.325,1.9875 -0.8625,1.2375 -0.8625,2.775 v 11.1 q 0,0.6375 -0.4125,1.05 -0.375,0.375 -1.0125,0.375 -0.6375,0 -1.05,-0.375 -0.4125,-0.4125 -0.4125,-1.05 v -26.4 q 0,-0.6375 0.4125,-1.05 0.4125,-0.4125 1.05,-0.4125 0.6375,0 1.0125,0.4125 0.4125,0.4125 0.4125,1.05 v 10.05 q 1.2375,-1.3875 3,-2.175 1.7625,-0.7875 3.825,-0.7875 z"
       style="stroke:#0000ff;stroke-width:0.93749994"
       id="path1609"
       inkscape:connector-curvature="0" /></g></svg>